<?xml version="1.0" encoding="UTF-8" standalone="no"?><!DOCTYPE svg PUBLIC "-//W3C//DTD SVG 1.1//EN" "http://www.w3.org/Graphics/SVG/1.1/DTD/svg11.dtd"><svg width="100%" height="100%" viewBox="0 0 100 99" version="1.1" xmlns="http://www.w3.org/2000/svg" xmlns:xlink="http://www.w3.org/1999/xlink" xml:space="preserve" xmlns:serif="http://www.serif.com/" style="fill-rule:evenodd;clip-rule:evenodd;stroke-linejoin:round;stroke-miterlimit:1.41421;"><clipPath id="_clip1"><rect id="four-black-squares" x="0.916" y="0.335" width="98.124" height="98.124"/></clipPath><g clip-path="url(#_clip1)"><g><path d="M38.656,7.882l-30.192,0c-2.044,0 -3.813,0.747 -5.307,2.242c-1.494,1.492 -2.241,3.262 -2.241,5.306l0,22.644c0,2.044 0.747,3.814 2.241,5.307c1.494,1.494 3.262,2.242 5.307,2.242l30.192,0c2.045,0 3.814,-0.748 5.308,-2.242c1.493,-1.493 2.24,-3.263 2.24,-5.307l0,-22.644c0,-2.044 -0.747,-3.814 -2.24,-5.306c-1.494,-1.495 -3.264,-2.242 -5.308,-2.242Z" style="fill:#2142ca;fill-rule:nonzero;"/><path d="M38.656,53.17l-30.192,0c-2.044,0 -3.813,0.748 -5.307,2.242c-1.494,1.493 -2.241,3.262 -2.241,5.306l0,22.645c0,2.044 0.747,3.814 2.241,5.306c1.494,1.495 3.262,2.242 5.307,2.242l30.192,0c2.045,0 3.814,-0.747 5.308,-2.242c1.493,-1.492 2.24,-3.262 2.24,-5.306l0,-22.645c0,-2.044 -0.747,-3.813 -2.24,-5.306c-1.494,-1.495 -3.264,-2.242 -5.308,-2.242Z" style="fill:#2142ca;fill-rule:nonzero;"/><path d="M96.798,10.124c-1.492,-1.495 -3.262,-2.242 -5.307,-2.242l-30.192,0c-2.044,0 -3.813,0.747 -5.307,2.242c-1.494,1.492 -2.241,3.262 -2.241,5.306l0,22.644c0,2.045 0.747,3.814 2.241,5.307c1.494,1.495 3.263,2.242 5.307,2.242l30.192,0c2.045,0 3.815,-0.748 5.307,-2.242c1.494,-1.493 2.242,-3.262 2.242,-5.307l0,-22.644c0,-2.044 -0.747,-3.813 -2.242,-5.306Z" style="fill:#2142ca;fill-rule:nonzero;"/><path d="M91.491,53.17l-30.192,0c-2.044,0 -3.813,0.748 -5.307,2.242c-1.494,1.493 -2.241,3.262 -2.241,5.306l0,22.645c0,2.044 0.747,3.814 2.241,5.306c1.494,1.495 3.263,2.242 5.307,2.242l30.192,0c2.045,0 3.815,-0.747 5.307,-2.242c1.494,-1.492 2.242,-3.262 2.242,-5.306l0,-22.645c0,-2.044 -0.747,-3.813 -2.242,-5.306c-1.492,-1.495 -3.261,-2.242 -5.307,-2.242Z" style="fill:#2142ca;fill-rule:nonzero;"/></g></g></svg>