<?xml version="1.0" encoding="UTF-8" standalone="no"?><!DOCTYPE svg PUBLIC "-//W3C//DTD SVG 1.1//EN" "http://www.w3.org/Graphics/SVG/1.1/DTD/svg11.dtd"><svg width="100%" height="100%" viewBox="0 0 92 91" version="1.1" xmlns="http://www.w3.org/2000/svg" xmlns:xlink="http://www.w3.org/1999/xlink" xml:space="preserve" xmlns:serif="http://www.serif.com/" style="fill-rule:evenodd;clip-rule:evenodd;stroke-linejoin:round;stroke-miterlimit:1.41421;"><path d="M88.569,46.824l-13.246,-13.247c-1.712,-1.711 -4.487,-1.711 -6.199,0l-2.647,2.648l0,-31.691c0,-2.421 -1.963,-4.383 -4.383,-4.383l-55.52,0c-2.42,0 -4.383,1.962 -4.383,4.383l0,70.13c0,2.421 1.963,4.383 4.383,4.383l24.838,0l0,7.305c0,2.42 1.962,4.383 4.383,4.383l13.247,0c1.162,0 2.277,-0.462 3.099,-1.284l36.428,-36.429c1.712,-1.711 1.712,-4.486 0,-6.198Zm-77.612,-37.907l46.753,0l0,36.074l-25.014,25.014c-0.088,0.088 -0.17,0.181 -0.25,0.276l-21.489,0l0,-61.364Zm36.269,73.052l-7.048,0l0,-7.049l32.045,-32.045l7.048,7.048l-32.045,32.046Z" style="fill:#2142ca;fill-rule:nonzero;"/></svg>