<?xml version="1.0" encoding="UTF-8" standalone="no"?><!DOCTYPE svg PUBLIC "-//W3C//DTD SVG 1.1//EN" "http://www.w3.org/Graphics/SVG/1.1/DTD/svg11.dtd"><svg width="100%" height="100%" viewBox="0 0 86 86" version="1.1" xmlns="http://www.w3.org/2000/svg" xmlns:xlink="http://www.w3.org/1999/xlink" xml:space="preserve" xmlns:serif="http://www.serif.com/" style="fill-rule:evenodd;clip-rule:evenodd;stroke-linejoin:round;stroke-miterlimit:1.41421;"><g><path d="M83.85,57.182l-0.87,0l0,-48.699c0,-0.96 -0.779,-1.739 -1.739,-1.739l-28.697,0l0,-4.348c0,-0.96 -0.779,-1.739 -1.74,-1.739l-15.653,0c-0.96,0 -1.739,0.779 -1.739,1.739l0,4.348l-28.697,0c-0.961,0 -1.739,0.779 -1.739,1.739l0,48.699l-0.87,0c-0.961,0 -1.739,0.778 -1.739,1.739l0,6.087c0,0.961 0.778,1.739 1.739,1.739l26.495,0l-8.855,14.759l2.983,1.789l9.929,-16.548l8.581,0l0,19.132l3.478,0l0,-19.132l8.581,0l9.929,16.548l2.982,-1.789l-8.854,-14.759l26.495,0c0.96,0 1.739,-0.778 1.739,-1.739l0,-6.087c0,-0.961 -0.779,-1.739 -1.739,-1.739Zm-46.96,-53.047l12.175,0l0,2.609l-12.175,0l0,-2.609Zm-30.436,6.088l73.048,0l0,46.959l-73.048,0l0,-46.959Zm75.656,53.046l-78.265,0l0,-2.609l78.265,0l0,2.609Z" style="fill:#2142ca;fill-rule:nonzero;"/><path d="M33.412,35.441l-8.696,0c-0.961,0 -1.739,0.779 -1.739,1.74l0,13.913c0,0.961 0.778,1.74 1.739,1.74l8.696,0c0.961,0 1.739,-0.779 1.739,-1.74l0,-13.913c0,-0.961 -0.778,-1.74 -1.739,-1.74Zm-1.739,13.914l-5.218,0l0,-4.348l5.218,0l0,4.348Zm0,-7.826l-5.218,0l0,-2.609l5.218,0l0,2.609Z" style="fill:#2142ca;fill-rule:nonzero;"/><path d="M47.326,25.006l-8.696,0c-0.961,0 -1.74,0.779 -1.74,1.739l0,24.349c0,0.961 0.779,1.74 1.74,1.74l8.696,0c0.96,0 1.739,-0.779 1.739,-1.74l0,-24.349c0,-0.96 -0.779,-1.739 -1.739,-1.739Zm-1.739,24.349l-5.218,0l0,-14.783l5.218,0l0,14.783Zm0,-18.262l-5.218,0l0,-2.609l5.218,0l0,2.609Z" style="fill:#2142ca;fill-rule:nonzero;"/><path d="M61.24,14.571l-8.696,0c-0.961,0 -1.74,0.778 -1.74,1.739l0,34.784c0,0.961 0.779,1.74 1.74,1.74l8.696,0c0.96,0 1.739,-0.779 1.739,-1.74l0,-34.784c0,-0.961 -0.779,-1.739 -1.739,-1.739Zm-1.74,34.784l-5.217,0l0,-25.219l5.217,0l0,25.219Zm0,-28.697l-5.217,0l0,-2.609l5.217,0l0,2.609Z" style="fill:#2142ca;fill-rule:nonzero;"/><rect x="11.672" y="14.571" width="9.566" height="3.478" style="fill:#2142ca;"/><rect x="11.672" y="19.788" width="19.131" height="3.478" style="fill:#2142ca;"/><rect x="11.672" y="25.006" width="13.914" height="3.478" style="fill:#2142ca;"/><rect x="27.325" y="14.571" width="3.478" height="3.478" style="fill:#2142ca;"/></g></svg>