<?xml version="1.0" encoding="UTF-8" standalone="no"?><!DOCTYPE svg PUBLIC "-//W3C//DTD SVG 1.1//EN" "http://www.w3.org/Graphics/SVG/1.1/DTD/svg11.dtd"><svg width="100%" height="100%" viewBox="0 0 86 86" version="1.1" xmlns="http://www.w3.org/2000/svg" xmlns:xlink="http://www.w3.org/1999/xlink" xml:space="preserve" xmlns:serif="http://www.serif.com/" style="fill-rule:evenodd;clip-rule:evenodd;stroke-linejoin:round;stroke-miterlimit:1.41421;"><clipPath id="_clip1"><rect id="sent-mail" x="0.411" y="0.657" width="85.222" height="85.222"/></clipPath><g clip-path="url(#_clip1)"><path d="M85.199,4.147c-0.379,-0.333 -0.919,-0.41 -1.376,-0.198l-82.675,38.413c-0.445,0.207 -0.731,0.651 -0.737,1.142c-0.005,0.49 0.272,0.941 0.713,1.157l23.396,11.482c0.43,0.211 0.941,0.163 1.324,-0.123l22.748,-17.002l-17.858,18.369c-0.255,0.262 -0.385,0.621 -0.356,0.985l1.778,23.157c0.039,0.513 0.383,0.951 0.872,1.112c0.131,0.043 0.265,0.064 0.398,0.064c0.364,0 0.718,-0.156 0.964,-0.442l12.418,-14.39l15.352,7.335c0.333,0.159 0.719,0.166 1.057,0.019c0.339,-0.148 0.597,-0.435 0.707,-0.787l21.651,-68.954c0.151,-0.481 0.003,-1.006 -0.376,-1.339Z" style="fill:#2142ca;fill-rule:nonzero;"/></g></svg>